<?xml version="1.0" standalone="no"?>
<!DOCTYPE svg PUBLIC "-//W3C//DTD SVG 20010904//EN"
 "http://www.w3.org/TR/2001/REC-SVG-20010904/DTD/svg10.dtd">
<svg version="1.0" xmlns="http://www.w3.org/2000/svg"
 width="211.000000pt" height="211.000000pt" viewBox="0 0 211.000000 211.000000"
 preserveAspectRatio="xMidYMid meet">
<metadata>
Created by potrace 1.14, written by Peter Selinger 2001-2017
</metadata>
<g transform="translate(0.000000,211.000000) scale(0.100000,-0.100000)"
fill="#000000" stroke="none">
<path d="M412 1871 c-17 -10 -39 -137 -48 -276 -11 -184 24 -414 88 -573 l21
-53 -27 -87 c-14 -48 -26 -106 -26 -129 0 -47 -4 -49 -60 -33 -62 19 -193 14
-243 -8 -42 -19 -117 -86 -117 -104 0 -15 11 -8 42 28 66 75 161 97 299 69 46
-9 85 -17 85 -18 1 -1 5 -17 9 -35 l7 -32 -46 0 c-68 0 -144 -19 -211 -52 -66
-32 -143 -93 -133 -104 4 -4 23 7 42 24 82 72 189 112 297 112 57 0 58 -1 87
-44 l29 -43 -56 -18 c-31 -9 -83 -31 -116 -49 -63 -32 -205 -159 -205 -182 0
-7 33 19 73 59 46 46 97 85 142 109 77 40 176 72 184 60 3 -4 40 -37 81 -73
l75 -66 205 -48 c113 -26 212 -47 220 -47 8 0 119 37 245 82 190 67 235 86
259 112 l29 31 46 -17 c75 -27 149 -77 217 -145 73 -73 95 -78 33 -7 -52 59
-151 130 -220 158 -30 12 -56 23 -58 25 -2 1 12 20 31 41 20 22 37 45 40 53 4
12 14 12 62 2 76 -16 156 -54 212 -99 56 -46 68 -39 15 9 -61 55 -138 90 -242
111 l-27 6 16 44 c18 48 30 56 98 56 74 0 142 -27 190 -77 24 -24 44 -39 44
-32 0 7 -20 32 -45 55 -52 51 -102 67 -197 66 l-68 0 0 50 c0 28 -8 87 -17
132 l-17 82 32 109 c75 268 132 537 132 632 0 23 -5 54 -10 68 -9 25 -14 27
-48 20 -84 -15 -250 -129 -405 -278 l-88 -84 -62 25 c-47 20 -85 27 -158 30
-113 5 -190 -11 -297 -64 -41 -20 -74 -34 -75 -32 -81 156 -177 294 -296 418
-39 42 -47 45 -69 31z"/>
</g>
</svg>
